<?xml version="1.0" standalone="no"?>
<!DOCTYPE svg PUBLIC "-//W3C//DTD SVG 20010904//EN"
 "http://www.w3.org/TR/2001/REC-SVG-20010904/DTD/svg10.dtd">
<svg version="1.0" xmlns="http://www.w3.org/2000/svg"
 width="508.000000pt" height="508.000000pt" viewBox="0 0 508.000000 508.000000"
 preserveAspectRatio="xMidYMid meet">
<metadata>
Created by potrace 1.14, written by Peter Selinger 2001-2017
</metadata>
<g transform="translate(0.000000,508.000000) scale(0.100000,-0.100000)"
fill="#000000" stroke="none">
<path d="M2839 5061 c-24 -27 -49 -82 -43 -92 3 -5 -1 -9 -8 -9 -9 0 -9 -3 2
-10 11 -7 11 -10 2 -10 -7 0 -11 -4 -8 -8 3 -5 6 -25 8 -45 1 -21 6 -37 10
-37 4 0 8 -13 8 -30 0 -16 5 -30 11 -30 8 0 10 -18 6 -57 -10 -105 -20 -153
-31 -153 -7 0 -7 -3 -1 -8 10 -7 15 -72 5 -72 -3 0 -5 -34 -5 -75 1 -41 -1
-75 -4 -75 -4 0 -6 -10 -7 -22 0 -13 -4 -45 -8 -73 -4 -27 -9 -61 -11 -75 -2
-14 -7 -36 -10 -50 -4 -14 -8 -34 -9 -45 -2 -11 -4 -20 -6 -20 -1 0 -4 -13 -6
-30 -3 -16 -7 -37 -11 -45 -7 -18 -14 -74 -15 -112 0 -15 -3 -26 -7 -24 -4 3
-7 -10 -8 -27 -1 -35 -9 -98 -19 -137 -3 -14 -6 -33 -6 -43 1 -10 -4 -15 -10
-11 -6 4 -8 2 -4 -4 9 -14 -25 -83 -37 -75 -6 3 -7 1 -3 -5 4 -7 -6 -36 -23
-66 -16 -30 -27 -57 -24 -60 4 -3 1 -6 -6 -6 -7 0 -9 -4 -6 -10 3 -5 2 -10 -4
-10 -5 0 -8 -9 -6 -20 3 -13 0 -18 -7 -14 -7 5 -9 0 -6 -14 3 -12 2 -22 -3
-24 -5 -2 -11 -20 -13 -41 -2 -20 -9 -43 -15 -51 -6 -7 -9 -21 -5 -30 3 -9 1
-16 -5 -16 -6 0 -10 -3 -9 -7 3 -16 -23 -93 -32 -93 -6 0 -9 -3 -9 -7 1 -5 0
-11 -1 -15 -1 -5 -3 -11 -5 -15 -6 -22 -20 -49 -32 -61 -7 -8 -11 -18 -8 -23
4 -5 2 -9 -4 -9 -5 0 -8 -12 -7 -27 2 -16 -3 -33 -13 -41 -9 -7 -10 -11 -3 -7
6 3 12 1 12 -4 0 -6 -4 -11 -8 -11 -4 0 -7 -12 -7 -27 1 -16 -3 -34 -8 -40 -6
-9 -5 -13 4 -13 9 0 10 -3 4 -8 -5 -4 -11 -29 -12 -57 -2 -41 -7 -54 -30 -72
-15 -13 -36 -23 -45 -23 -10 0 -18 -4 -18 -8 0 -5 -6 -9 -12 -10 -22 -2 -43
-7 -55 -15 -6 -4 -18 -4 -27 -1 -9 3 -16 2 -16 -4 0 -14 -108 -6 -135 9 -5 4
-18 5 -27 4 -10 -2 -18 1 -18 6 0 6 -5 7 -10 4 -15 -9 -36 10 -78 74 -45 69
-56 82 -109 136 -24 24 -43 48 -43 55 0 6 -7 13 -15 16 -8 4 -15 13 -15 22 0
8 -3 12 -6 9 -4 -3 -20 13 -37 36 -17 23 -35 45 -41 49 -6 4 -7 8 -3 8 4 0 -3
15 -17 33 -15 19 -26 37 -26 41 0 6 -34 57 -55 82 -5 7 -23 35 -40 63 -16 28
-33 51 -37 51 -5 0 -8 7 -8 15 0 7 -8 19 -17 24 -10 6 -15 11 -10 11 4 0 -1 9
-10 19 -32 35 -40 47 -47 69 -4 12 -14 22 -22 22 -8 0 -12 5 -9 10 3 6 -1 13
-9 16 -9 3 -13 10 -10 15 3 5 0 9 -6 9 -6 0 -9 4 -6 9 3 5 -1 11 -9 15 -8 3
-15 11 -15 17 0 7 -6 20 -13 28 -18 20 -57 121 -60 149 -1 12 -4 22 -7 22 -3
0 -19 29 -35 64 -16 36 -34 62 -39 59 -5 -3 -6 -1 -2 5 3 6 1 14 -5 17 -5 4
-8 13 -5 20 3 8 -1 19 -9 25 -8 6 -11 18 -8 26 3 8 1 14 -5 14 -5 0 -13 10
-17 23 -4 12 -9 24 -10 27 -1 3 -6 15 -10 28 -4 12 -12 22 -17 22 -5 0 -6 5
-3 10 3 6 1 10 -4 10 -6 0 -10 3 -9 8 2 10 -14 46 -23 52 -4 3 -9 12 -11 20
-2 8 -9 21 -16 28 -7 8 -9 18 -6 24 4 7 2 8 -4 4 -7 -4 -12 -2 -12 3 0 21 -3
26 -22 39 -10 7 -16 18 -12 23 3 5 0 17 -7 25 -7 9 -14 21 -15 28 -5 27 -10
41 -19 52 -11 12 -73 13 -93 1 -6 -5 -12 -6 -12 -3 0 3 -15 -8 -32 -25 -18
-16 -35 -29 -39 -29 -9 0 -23 -51 -20 -74 2 -12 -1 -16 -10 -11 -8 6 -10 4 -3
-6 4 -8 10 -23 11 -34 2 -10 9 -23 16 -27 6 -4 8 -8 2 -8 -5 0 -3 -5 5 -10 13
-9 13 -10 0 -10 -12 -1 -12 -3 2 -11 10 -5 15 -16 11 -24 -3 -9 -1 -21 4 -28
5 -6 22 -42 37 -79 16 -37 32 -66 36 -63 5 3 23 -24 40 -60 27 -57 117 -165
137 -166 18 0 72 -45 77 -63 3 -11 -2 -29 -12 -40 -15 -18 -15 -19 0 -8 12 10
18 10 24 1 4 -7 3 -9 -3 -6 -15 10 -25 -21 -13 -42 5 -10 7 -21 4 -24 -3 -2 4
-22 15 -43 12 -21 21 -47 21 -56 0 -10 4 -18 9 -18 5 0 7 -9 4 -20 -3 -11 0
-20 6 -20 6 0 11 -13 11 -30 0 -16 5 -30 11 -30 5 0 8 -4 5 -9 -3 -4 -1 -23 5
-42 6 -19 12 -45 15 -59 3 -13 8 -27 12 -30 4 -3 9 -14 10 -25 4 -21 41 -78
54 -83 4 -2 8 -10 8 -17 0 -20 78 -97 90 -90 19 12 31 -5 18 -28 -10 -20 -9
-21 5 -9 13 11 15 10 10 -7 -3 -12 -1 -21 4 -21 5 0 10 -10 11 -22 1 -13 4
-30 6 -38 2 -8 7 -30 11 -47 4 -18 11 -33 15 -33 4 0 12 -18 19 -40 6 -22 16
-40 21 -40 6 0 10 -6 10 -14 0 -8 9 -35 20 -60 10 -25 21 -57 23 -71 1 -13 6
-27 10 -31 4 -4 7 -18 7 -31 0 -13 4 -21 10 -18 6 3 7 -1 4 -10 -4 -8 -1 -22
6 -30 7 -8 9 -15 4 -15 -4 0 -3 -5 4 -12 7 -7 12 -20 12 -30 0 -10 4 -18 8
-18 5 0 19 -20 32 -45 13 -25 27 -45 32 -45 5 0 7 -4 4 -9 -3 -5 1 -14 9 -21
8 -7 15 -17 15 -22 0 -5 7 -16 15 -25 8 -8 13 -19 10 -24 -4 -5 -2 -9 3 -9 10
0 32 -45 36 -73 1 -9 5 -19 8 -22 14 -15 -21 -82 -69 -132 -29 -30 -53 -59
-53 -65 0 -6 -2 -9 -5 -6 -3 3 -27 -16 -54 -41 -27 -25 -70 -64 -96 -86 -27
-22 -88 -80 -137 -129 -78 -77 -91 -86 -101 -72 -8 11 -32 18 -77 21 -36 3
-76 7 -90 11 -24 5 -64 12 -105 19 -11 1 -20 3 -20 5 0 1 -16 3 -35 5 -35 4
-75 12 -75 15 0 2 -50 9 -87 11 -16 1 -28 5 -28 8 0 11 -72 4 -80 -8 -4 -7 -9
-12 -11 -11 -2 1 -17 -4 -34 -11 -16 -7 -33 -12 -37 -11 -5 1 -8 -3 -8 -8 0
-6 -7 -10 -15 -10 -8 0 -25 -11 -39 -25 -14 -14 -28 -25 -31 -25 -7 0 -27 -18
-105 -94 -71 -70 -86 -88 -86 -97 1 -4 -6 -15 -15 -25 -14 -16 -64 -109 -67
-124 0 -3 -6 -18 -13 -35 -7 -16 -11 -38 -10 -48 1 -9 -2 -17 -6 -17 -9 0 -11
-10 -15 -70 -1 -16 -4 -30 -7 -30 -3 0 -7 -66 -9 -146 -2 -99 0 -144 8 -139 7
4 7 -2 0 -19 -6 -17 -6 -27 1 -31 5 -4 7 -15 4 -25 -4 -11 1 -20 11 -24 12 -5
14 -10 7 -17 -8 -8 -7 -19 3 -37 8 -15 14 -33 14 -41 0 -16 42 -94 53 -99 4
-2 5 -7 2 -12 -3 -5 1 -14 8 -22 7 -7 24 -31 37 -53 13 -22 30 -46 37 -53 7
-7 13 -16 13 -20 0 -9 105 -117 149 -154 18 -16 44 -28 57 -28 13 0 24 -4 24
-9 0 -5 7 -12 16 -15 10 -4 13 -2 8 7 -6 9 -4 9 7 1 18 -14 100 -34 93 -23 -3
5 0 9 5 9 6 0 11 -4 11 -8 0 -4 9 -8 20 -8 11 0 20 3 20 6 0 4 23 5 51 4 34
-1 49 2 46 10 -3 8 8 11 34 9 23 -1 37 2 34 7 -3 6 0 7 8 4 7 -2 25 0 40 5 18
7 28 7 33 0 4 -7 12 -5 22 3 10 8 27 13 39 12 13 0 23 3 23 8 0 5 4 7 9 4 5
-4 22 -1 38 5 15 6 39 13 53 16 13 2 30 9 37 15 7 6 13 8 13 4 0 -3 16 3 36
14 19 11 33 16 30 11 -3 -5 5 -4 19 2 14 7 25 16 25 20 0 5 4 5 10 2 5 -3 15
5 22 19 6 14 15 26 20 26 5 0 50 40 100 90 50 50 88 90 84 90 -5 0 10 18 32
39 38 37 42 39 101 36 40 -2 61 1 61 9 0 6 5 4 10 -4 5 -8 10 -10 10 -5 0 6
25 10 56 10 31 0 58 3 60 7 2 3 15 5 29 3 14 -1 25 3 25 9 0 6 5 4 10 -4 5 -8
10 -10 10 -3 0 12 17 12 38 0 7 -5 12 -3 12 4 0 9 3 9 14 0 11 -9 15 -9 19 1
4 9 6 10 6 1 1 -7 8 -10 18 -6 12 5 14 3 8 -8 -7 -11 -6 -12 6 -3 12 9 82 12
99 4 12 -5 47 -4 66 2 12 4 27 1 33 -5 6 -6 11 -7 11 -2 0 6 25 10 56 10 31 0
58 3 60 7 2 4 13 5 24 3 11 -2 20 0 20 4 0 4 6 8 13 8 22 1 66 11 77 18 6 4
23 9 38 11 28 4 137 16 160 17 6 0 12 3 12 6 0 9 147 7 156 -2 4 -4 20 -7 36
-7 15 0 37 -5 48 -10 11 -6 29 -15 40 -20 12 -6 25 -8 29 -5 5 3 11 -2 15 -10
3 -8 12 -12 21 -9 8 4 23 0 32 -7 12 -10 15 -10 9 -1 -4 6 -2 12 3 12 6 0 11
-4 11 -9 0 -5 14 -7 30 -6 17 1 30 0 30 -4 0 -3 15 -5 32 -5 18 1 41 -3 51 -8
11 -5 17 -5 17 1 0 6 9 7 23 3 12 -4 70 -8 130 -7 87 0 108 -3 112 -15 3 -8
21 -26 39 -40 19 -14 32 -28 29 -32 -2 -5 0 -8 5 -8 4 0 18 -9 31 -21 18 -17
25 -18 36 -9 8 7 15 8 15 3 0 -5 10 -9 22 -10 11 -1 24 -6 27 -10 6 -8 20 -13
61 -18 14 -2 25 -4 25 -5 0 -4 43 -11 75 -13 19 -2 40 -6 46 -9 6 -4 14 -4 18
-1 11 11 106 9 106 -2 0 -7 3 -7 8 0 9 12 82 13 101 1 10 -7 12 -6 6 4 -6 9 3
11 39 9 25 -2 46 -1 46 3 0 5 5 8 11 8 5 0 7 -5 3 -12 -5 -7 -3 -8 7 -2 8 4
30 9 49 11 45 3 131 18 138 23 3 4 21 7 38 9 9 0 12 6 8 13 -4 6 -3 8 4 4 6
-3 23 -1 39 5 15 6 29 9 30 7 1 -2 9 6 17 17 9 11 16 17 16 13 0 -5 9 1 20 12
11 11 28 17 40 15 11 -2 18 0 15 6 -4 5 6 9 22 10 64 3 79 5 92 13 9 6 12 5 8
-1 -4 -7 17 -10 63 -10 39 1 70 5 70 10 0 4 5 5 10 2 6 -3 10 -1 10 5 0 6 4 9
8 6 14 -8 14 65 0 82 -8 9 -8 13 -1 9 18 -11 14 59 -5 80 -10 11 -29 18 -47
17 -16 -1 -30 -3 -30 -4 0 -4 -41 -12 -77 -15 -36 -3 -37 -2 -26 19 7 11 13
28 14 36 2 8 7 16 13 18 5 2 7 10 4 18 -3 8 -1 14 5 14 5 0 12 11 14 25 5 24
4 25 -35 21 -23 -3 -45 -12 -49 -21 -5 -8 -13 -15 -19 -15 -5 0 -19 -9 -31
-20 -12 -11 -34 -25 -49 -32 -15 -7 -26 -15 -24 -18 2 -3 -6 -7 -17 -7 -12 -1
-24 -6 -27 -10 -3 -4 -19 -8 -36 -7 -16 0 -36 -4 -43 -9 -6 -5 -12 -6 -12 -1
0 5 -18 10 -40 10 -26 1 -37 -3 -33 -10 4 -7 1 -6 -8 1 -9 7 -20 8 -29 3 -8
-5 -19 -6 -25 -2 -5 3 -19 7 -30 8 -11 1 -45 5 -75 9 -30 4 -63 8 -72 8 -10 1
-18 6 -18 12 0 5 -5 3 -10 -5 -5 -8 -10 -10 -10 -5 0 10 -14 14 -57 17 -7 1
-13 4 -13 8 0 4 -6 7 -12 7 -31 1 -92 14 -102 22 -6 5 -24 11 -41 14 -16 3
-46 12 -66 21 -20 8 -39 12 -43 9 -3 -4 -6 -1 -6 6 0 8 -8 11 -20 8 -11 -3
-18 -1 -14 4 4 8 -9 11 -32 8 -4 0 -10 4 -14 11 -4 6 -17 12 -28 13 -12 1 -22
5 -22 9 0 4 -13 8 -29 8 -17 0 -33 5 -36 11 -4 5 -12 8 -18 6 -7 -2 -20 0 -30
5 -20 10 -60 20 -92 22 -11 0 -23 5 -26 9 -4 5 -19 10 -35 10 -16 1 -32 5 -35
10 -3 4 -22 8 -42 9 -20 1 -37 4 -37 8 0 4 -10 7 -22 7 -13 -1 -43 3 -68 7
-25 5 -55 9 -67 9 -13 0 -23 3 -23 8 0 4 -9 6 -20 4 -11 -2 -20 1 -20 7 0 6
-2 9 -5 6 -5 -5 -27 -1 -110 18 -11 3 -24 6 -30 7 -5 2 -16 7 -24 11 -9 6 -12
5 -7 -2 3 -6 -16 -2 -43 8 -28 10 -52 15 -55 12 -3 -2 -12 0 -19 6 -8 7 -17 9
-20 5 -4 -3 -7 -1 -7 5 0 6 -13 13 -30 17 -16 4 -30 11 -30 16 0 6 -4 7 -10 4
-5 -3 -10 -1 -10 5 0 6 -5 8 -12 4 -8 -5 -9 5 -3 37 4 24 7 50 8 57 0 6 4 12
7 12 12 0 4 300 -8 312 -8 8 -7 18 2 37 15 29 30 94 29 129 0 12 4 22 9 22 6
0 8 6 5 14 -3 7 1 25 8 39 7 14 11 28 9 30 -3 2 1 17 8 33 6 16 13 34 13 39 1
6 7 21 12 35 6 14 9 28 6 32 -2 5 0 8 5 8 5 0 9 6 10 13 0 6 3 22 6 34 3 13 8
31 10 40 3 10 9 32 13 48 5 17 8 44 8 60 -1 17 2 35 7 42 5 6 5 14 1 16 -11 7
-9 48 2 67 5 8 4 11 -3 6 -7 -4 -11 37 -11 136 -1 79 -3 153 -6 166 -2 12 1
22 6 22 6 0 7 6 2 13 -4 6 -6 19 -5 29 2 9 -2 19 -8 23 -7 4 -7 13 1 27 7 13
7 23 1 27 -5 3 -8 14 -6 23 1 10 -2 20 -7 24 -5 3 -7 10 -4 15 4 5 3 14 -1 21
-15 24 -22 138 -10 157 6 10 5 12 -2 7 -7 -4 -12 -2 -12 3 0 6 4 11 8 11 4 0
8 8 9 18 3 50 17 118 27 124 7 5 6 8 -3 8 -9 0 -10 4 -4 13 5 6 10 23 11 37 2
24 8 59 12 70 1 3 2 8 1 13 0 4 3 7 9 7 5 0 10 10 10 21 0 19 2 20 17 8 15
-12 16 -12 10 4 -4 11 -3 16 3 12 10 -6 37 51 32 68 -1 4 2 7 7 7 5 0 15 16
22 35 7 19 16 35 19 35 4 0 7 7 8 15 1 8 3 22 4 30 1 8 6 15 11 15 6 0 8 3 5
6 -4 3 0 20 7 37 7 18 14 35 14 40 1 4 1 8 2 10 4 15 9 50 10 85 1 23 7 42 12
42 5 0 4 7 -3 15 -10 12 -10 15 1 15 9 0 10 3 4 8 -12 8 -13 27 -3 38 4 4 3
13 -2 20 -6 6 -12 33 -13 58 -1 25 -4 46 -7 46 -3 0 -7 12 -8 27 -1 15 -7 30
-13 34 -12 7 -11 16 2 41 6 11 5 18 -4 21 -8 3 -9 8 -2 18 12 17 13 39 1 58
-6 10 -5 12 2 7 7 -4 12 -3 12 3 0 5 -3 12 -7 14 -5 3 -7 58 -6 124 3 140 3
140 2 156 -1 17 15 123 27 182 4 17 8 41 9 55 2 14 4 25 5 25 5 0 12 52 11 88
0 20 8 51 19 69 10 17 17 35 14 40 -3 4 -2 8 3 8 4 0 8 25 7 57 0 49 -4 59
-29 79 -15 12 -34 20 -42 17 -7 -3 -13 0 -13 6 0 6 -8 11 -18 11 -10 0 -23 5
-29 11 -5 5 -32 12 -60 14 -38 3 -52 0 -64 -14z"/>
</g>
</svg>
