<?xml version="1.0" encoding="UTF-8" standalone="no"?>
<!DOCTYPE svg PUBLIC "-//W3C//DTD SVG 1.1//EN" "http://www.w3.org/Graphics/SVG/1.1/DTD/svg11.dtd">
<svg width="100%" height="100%" viewBox="0 0 268 108" version="1.1" xmlns="http://www.w3.org/2000/svg" xmlns:xlink="http://www.w3.org/1999/xlink" xml:space="preserve" xmlns:serif="http://www.serif.com/" style="fill-rule:evenodd;clip-rule:evenodd;stroke-linecap:round;stroke-linejoin:round;stroke-miterlimit:1.5;">
    <g transform="matrix(0.445432,0,0,0.535453,0,0)">
        <rect id="Artboard1" x="0" y="0" width="600" height="200" style="fill:none;"/>
        <g id="Artboard11" serif:id="Artboard1">
            <g transform="matrix(3.88384,0,0,1.17656,-666.363,-38.1283)">
                <path d="M248.983,40.746L263.316,72.521L293.589,55.239L286.508,89.37L321.157,93.183L295.366,116.633L321.157,140.084L286.508,143.896L293.589,178.027L263.316,160.746L248.983,192.521L234.65,160.746L204.378,178.027L211.459,143.896L176.81,140.084L202.601,116.633L176.81,93.183L211.459,89.37L204.378,55.239L234.65,72.521L248.983,40.746Z" style="fill:rgb(202,82,232);stroke:rgb(184,56,144);stroke-width:5.38px;"/>
            </g>
        </g>
    </g>
</svg>
