<?xml version="1.0" encoding="UTF-8"?>
<svg id="Layer_1" data-name="Layer 1" xmlns="http://www.w3.org/2000/svg" viewBox="0 0 501.6 672.01">
  <defs>
    <style>
      .cls-1 {
        fill: none;
        stroke-width: 2px;
      }

      .cls-1, .cls-2 {
        stroke: #000;
      }

      .cls-2 {
        fill: #e9d375;
        stroke-width: 5px;
      }
    </style>
  </defs>
  <path class="cls-2" d="M250.67,665.64c7.11-3.11,21.91-10.13,28.31-13.33,8-4,45.33-13.33,68-13.33,18.13,0,59.11,8,70.67,8,11.56,0,33.6-1.87,50.67-14.67,17.07-12.8,26.67-36,24-65.33-1.57-17.26-2.78-152.56-2.78-152.56,0-6-1.27-77.12,.33-81.12s5.5-9.5,5.5-9.5c-1.17-1.67-3.9-6-5.5-10s-.33-72.38-.33-72.38c0,0,1.21-119.85,2.78-137.11,2.67-29.33-6.93-52.53-24-65.33-17.07-12.8-39.11-14.67-50.67-14.67-11.56,0-52.53,8-70.67,8-22.67,0-60-9.33-68-13.33-6.4-3.2-21.2-10.22-28.31-13.33h0c-7.11,3.11-21.91,10.13-28.31,13.33-8,4-45.33,13.33-68,13.33-18.13,0-59.11-8-70.67-8s-33.6,1.87-50.67,14.67C15.97,51.77,6.37,74.97,9.03,104.3c1.57,17.26,2.78,137.11,2.78,137.11,0,0,1.27,68.38-.33,72.38s-4.33,8.33-5.5,10c0,0,3.9,5.5,5.5,9.5s.33,75.12,.33,81.12c0,0-1.21,135.3-2.78,152.56-2.67,29.33,6.93,52.53,24,65.33,17.07,12.8,39.11,14.67,50.67,14.67s52.53-8,70.67-8c22.67,0,60,9.33,68,13.33,6.4,3.2,21.2,10.22,28.31,13.33Z"/>
  <path class="cls-1" d="M53.48,606.26c9.83-2.62,19.4-11.15,11.55-16.78-7.91-5.68-12.35,6.52-11.55,16.78Z"/>
  <path class="cls-1" d="M434.71,589.48c-7.85,5.63,1.73,14.16,11.55,16.78,.79-10.26-3.64-22.46-11.55-16.78Z"/>
  <path class="cls-1" d="M275.88,629.69c7.4-3.54,41.92-11.8,62.88-11.8,38.53,.76,66.64,15.18,101.84,0,3.44-1.54,5.25-6.33,5.66-11.63,5.2,1.39,10.48,1.12,13.27-2.11,10.29-11.88,15.59-29.18,13.61-49.96-1.45-15.27-4.66-210.94-.72-220.38h0c1.48-3.54,4.01-7.32,5.09-8.8-1.09-1.5-3.65-5.34-5.09-8.79h0c-3.95-9.44-.74-186.68,.72-201.96,1.97-20.78-3.32-38.08-13.61-49.96-8.08-9.33-36.83,6.06-24.83,14.67,12,8.61,16-23.89,5.9-28.41-13.52-6.04-28.05-7.08-36.5-7.08-10.69,0-48.58,7.08-65.34,7.08-20.96,0-55.48-8.26-62.88-11.8-5.92-2.83-19.32-9.04-25.89-11.8-6.58,2.75-19.97,8.97-25.89,11.8-7.4,3.54-41.92,11.8-62.88,11.8-16.77,0-54.66-7.08-65.34-7.08-8.46,0-22.98,1.03-36.5,7.08-10.1,4.52-6.1,37.02,5.9,28.41,12-8.61-16.75-24-24.83-14.67-10.29,11.88-15.59,29.18-13.61,49.96,1.45,15.27,4.66,192.52,.72,201.96h0c-1.44,3.46-3.99,7.29-5.09,8.79,1.08,1.47,3.61,5.26,5.09,8.8h0c3.95,9.44,.74,205.1-.72,220.38-1.97,20.78,3.32,38.08,13.61,49.96,2.8,3.23,8.07,3.5,13.27,2.11,.41,5.3,2.22,10.09,5.66,11.63,35.3,15.18,63.24,.76,101.84,0,20.96,0,55.48,8.26,62.88,11.8,5.92,2.83,19.32,9.04,25.89,11.79"/>
  <path class="cls-1" d="M249.75,26.97c-6.58,2.75-19.97,8.97-25.89,11.8-7.4,3.54-41.92,11.8-62.88,11.8-16.77,0-54.66-7.08-65.34-7.08-8.46,0-22.98,1.03-36.5,7.08-10.1,4.52-6.1,37.02,5.9,28.41,12-8.61-16.75-24-24.83-14.67-10.29,11.88-15.59,29.18-13.61,49.96,1.45,15.27,4.66,192.52,.72,201.96h0c-1.44,3.46-3.99,7.29-5.09,8.79,1.08,1.47,3.61,5.26,5.09,8.8h0c3.95,9.44,.74,205.1-.72,220.38-1.97,20.78,3.32,38.08,13.61,49.96,2.8,3.23,8.07,3.5,13.27,2.11,.41,5.3,2.22,10.09,5.66,11.63,35.3,15.18,63.24,.76,101.84,0,20.96,0,55.48,8.26,62.88,11.8,5.92,2.83,19.32,9.04,25.89,11.79,6.58-2.75,19.97-8.97,25.89-11.79,7.4-3.54,41.92-11.8,62.88-11.8"/>
</svg>