<?xml version="1.0" encoding="UTF-8"?>
<svg id="Layer_1" data-name="Layer 1" xmlns="http://www.w3.org/2000/svg" viewBox="0 0 724.23 973.64">
  <defs>
    <style>
      .cls-1 {
        fill: none;
        stroke-width: 2px;
      }

      .cls-1, .cls-2 {
        stroke: #000;
      }

      .cls-2 {
        fill: #e9d375;
        stroke-width: 5px;
      }
    </style>
  </defs>
  <path class="cls-2" d="M362.17,965.64c10.34-4.53,31.87-14.74,41.18-19.39,11.64-5.82,65.94-19.39,98.91-19.39,26.38,0,85.98,11.64,102.79,11.64,16.81,0,48.87-2.72,73.7-21.33,24.82-18.62,38.79-52.36,34.91-95.03-2.28-25.11-4.04-221.9-4.04-221.9,0-8.73-1.85-112.17,.48-117.99,2.33-5.82,8-13.82,8-13.82-1.7-2.42-5.67-8.73-8-14.55-2.33-5.82-.48-105.28-.48-105.28,0,0,1.76-174.32,4.04-199.43,3.88-42.67-10.08-76.41-34.91-95.03-24.82-18.62-56.89-21.33-73.7-21.33-16.81,0-76.41,11.64-102.79,11.64-32.97,0-87.27-13.58-98.91-19.39-9.31-4.65-30.83-14.87-41.18-19.39h0c-10.34,4.53-31.87,14.74-41.18,19.39-11.64,5.82-65.94,19.39-98.91,19.39-26.38,0-85.98-11.64-102.79-11.64s-48.87,2.72-73.7,21.33C20.78,72.74,6.81,106.48,10.69,149.15c2.28,25.11,4.04,199.43,4.04,199.43,0,0,1.85,99.46-.48,105.28s-6.3,12.12-8,14.55c0,0,5.67,8,8,13.82s.48,109.26,.48,117.99c0,0-1.76,196.8-4.04,221.9-3.88,42.67,10.08,76.41,34.91,95.03,24.82,18.62,56.89,21.33,73.7,21.33s76.41-11.64,102.79-11.64c32.97,0,87.27,13.58,98.91,19.39,9.31,4.65,30.83,14.87,41.18,19.39Z"/>
  <path class="cls-1" d="M75.34,879.27c14.29-3.81,28.22-16.21,16.8-24.41-11.51-8.26-17.96,9.48-16.8,24.41Z"/>
  <path class="cls-1" d="M629.86,854.86c-11.41,8.19,2.51,20.6,16.8,24.41,1.15-14.93-5.3-32.66-16.8-24.41Z"/>
  <path class="cls-1" d="M398.84,913.35c10.76-5.15,60.97-17.16,91.46-17.16,56.04,1.11,96.92,22.08,148.14,0,5.01-2.24,7.63-9.2,8.23-16.92,7.57,2.02,15.24,1.63,19.31-3.07,14.97-17.28,22.67-42.45,19.8-72.67-2.11-22.21-6.78-306.82-1.04-320.55h0c2.15-5.15,5.83-10.65,7.4-12.79-1.59-2.18-5.31-7.76-7.4-12.79h0c-5.74-13.73-1.07-271.54,1.04-293.75,2.87-30.22-4.83-55.39-19.8-72.67-11.75-13.58-53.57,8.81-36.11,21.33,17.45,12.53,23.27-34.75,8.58-41.32-19.66-8.79-40.79-10.3-53.09-10.3-15.54,0-70.66,10.3-95.05,10.3-30.49,0-80.7-12.01-91.46-17.16-8.61-4.12-28.1-13.16-37.66-17.16-9.56,4-29.05,13.04-37.66,17.16-10.76,5.15-60.97,17.16-91.46,17.16-24.39,0-79.5-10.3-95.05-10.3-12.3,0-33.43,1.5-53.09,10.3-14.7,6.57-8.88,53.84,8.58,41.32,17.45-12.53-24.36-34.91-36.11-21.33-14.97,17.29-22.67,42.45-19.8,72.67,2.11,22.21,6.78,280.03,1.04,293.75h0c-2.09,5.03-5.81,10.61-7.4,12.79,1.57,2.15,5.25,7.65,7.4,12.79h0c5.74,13.73,1.07,298.33-1.04,320.55-2.87,30.22,4.83,55.39,19.8,72.67,4.07,4.7,11.74,5.09,19.31,3.07,.6,7.71,3.22,14.68,8.23,16.92,51.35,22.08,91.98,1.11,148.14,0,30.49,0,80.7,12.01,91.46,17.16,8.61,4.12,28.1,13.15,37.66,17.16"/>
  <path class="cls-1" d="M360.83,36.67c-9.56,4-29.05,13.04-37.66,17.16-10.76,5.15-60.97,17.16-91.46,17.16-24.39,0-79.5-10.3-95.05-10.3-12.3,0-33.43,1.5-53.09,10.3-14.7,6.57-8.88,53.84,8.58,41.32,17.45-12.53-24.36-34.91-36.11-21.33-14.97,17.29-22.67,42.45-19.8,72.67,2.11,22.21,6.78,280.03,1.04,293.75h0c-2.09,5.03-5.81,10.61-7.4,12.79,1.57,2.15,5.25,7.65,7.4,12.79h0c5.74,13.73,1.07,298.33-1.04,320.55-2.87,30.22,4.83,55.39,19.8,72.67,4.07,4.7,11.74,5.09,19.31,3.07,.6,7.71,3.22,14.68,8.23,16.92,51.35,22.08,91.98,1.11,148.14,0,30.49,0,80.7,12.01,91.46,17.16,8.61,4.12,28.1,13.15,37.66,17.16,9.56-4,29.05-13.04,37.66-17.16,10.76-5.15,60.97-17.16,91.46-17.16"/>
</svg>