<svg width="28" height="33" viewBox="0 0 28 33" fill="none" xmlns="http://www.w3.org/2000/svg">
<path d="M23.4102 17.4387C23.3953 14.7348 24.6302 12.694 27.1297 11.1911C25.7311 9.20926 23.6185 8.11889 20.8289 7.90523C18.1881 7.69894 15.3018 9.43029 14.2455 9.43029C13.1296 9.43029 10.5707 7.97891 8.56217 7.97891C4.41126 8.04521 0 11.2574 0 17.7923C0 19.7226 0.357067 21.7167 1.0712 23.7746C2.02338 26.4785 5.46015 33.1091 9.0457 32.9986C10.9203 32.9544 12.2444 31.6799 14.6844 31.6799C17.0499 31.6799 18.2774 32.9986 20.3677 32.9986C23.983 32.9471 27.0925 26.9205 28 24.2093C23.1498 21.9475 23.4102 17.5786 23.4102 17.4387ZM19.1998 5.34137C21.2306 2.95433 21.0446 0.780946 20.9851 0C19.1923 0.103144 17.1169 1.20826 15.9341 2.57123C14.6323 4.02997 13.8661 5.83499 14.0298 7.8684C15.9713 8.01574 17.7418 7.02851 19.1998 5.34137Z" fill="#333333"/>
</svg>