<svg width="40" height="27" viewBox="0 0 40 27" fill="none" xmlns="http://www.w3.org/2000/svg">
<path d="M1 24.7566C3.90278 25.2797 10.8167 26.0121 15.25 24.7566C20.7917 23.1872 28.7083 16.9094 32.6667 16.9094C36.625 16.9094 39 21.6177 34.25 22.4024C29.5 23.1872 22.375 18.4789 20.7917 16.9094C19.2083 15.34 12.0833 5.9234 9.70833 9.84698C7.33333 13.7706 16.8333 15.3402 20.7917 15.3402M20.7917 15.3402C24.75 15.3402 34.25 12.201 32.6667 9.84698C30.4154 6.5 24.75 10.6319 22.375 13.7707C21.0315 15.5464 14.0626 22.4024 9.70833 22.4024C7.33333 22.4024 1.79167 18.4787 5.75 16.9094C9.70833 15.3402 21.5833 23.9717 24.75 24.7566C27.9167 25.5415 35.8333 27.1107 39 24.7566M20.7917 15.3402C22.6389 10.8935 25.225 2 20.7917 2C16.3583 2 18.9444 10.8935 20.7917 15.3402Z" stroke="#747474" stroke-width="2.5"/>
</svg>