<svg width="32" height="33" viewBox="0 0 32 33" fill="none" xmlns="http://www.w3.org/2000/svg">
<path d="M16.0036 8.03922C11.4632 8.03922 7.801 11.8167 7.801 16.5C7.801 21.1833 11.4632 24.9608 16.0036 24.9608C20.5439 24.9608 24.2061 21.1833 24.2061 16.5C24.2061 11.8167 20.5439 8.03922 16.0036 8.03922ZM16.0036 22.0006C13.0695 22.0006 10.6708 19.5338 10.6708 16.5C10.6708 13.4662 13.0624 10.9994 16.0036 10.9994C18.9448 10.9994 21.3363 13.4662 21.3363 16.5C21.3363 19.5338 18.9376 22.0006 16.0036 22.0006ZM26.4549 7.69313C26.4549 8.7903 25.5982 9.66657 24.5417 9.66657C23.478 9.66657 22.6284 8.78294 22.6284 7.69313C22.6284 6.60331 23.4851 5.71968 24.5417 5.71968C25.5982 5.71968 26.4549 6.60331 26.4549 7.69313ZM31.8876 9.69603C31.7662 7.05249 31.1808 4.71087 29.3033 2.7816C27.4329 0.852337 25.1627 0.248522 22.5999 0.115977C19.9585 -0.0386589 12.0415 -0.0386589 9.40011 0.115977C6.8444 0.241158 4.57423 0.844974 2.69671 2.77424C0.819186 4.7035 0.240937 7.04513 0.112437 9.68866C-0.0374791 12.4132 -0.0374791 20.5794 0.112437 23.304C0.233798 25.9475 0.819186 28.2891 2.69671 30.2184C4.57423 32.1477 6.83726 32.7515 9.40011 32.884C12.0415 33.0387 19.9585 33.0387 22.5999 32.884C25.1627 32.7588 27.4329 32.155 29.3033 30.2184C31.1737 28.2891 31.7591 25.9475 31.8876 23.304C32.0375 20.5794 32.0375 12.4206 31.8876 9.69603ZM28.4752 26.2273C27.9184 27.6706 26.8404 28.7825 25.434 29.3642C23.3281 30.2258 18.3308 30.0269 16.0036 30.0269C13.6763 30.0269 8.67195 30.2184 6.57312 29.3642C5.1739 28.7899 4.09593 27.678 3.53196 26.2273C2.69671 24.0551 2.88946 18.9005 2.88946 16.5C2.88946 14.0995 2.70385 8.93758 3.53196 6.77268C4.08879 5.32941 5.16676 4.21751 6.57312 3.63578C8.67909 2.77424 13.6763 2.97306 16.0036 2.97306C18.3308 2.97306 23.3352 2.7816 25.434 3.63578C26.8332 4.21014 27.9112 5.32205 28.4752 6.77268C29.3104 8.94494 29.1177 14.0995 29.1177 16.5C29.1177 18.9005 29.3104 24.0624 28.4752 26.2273Z" fill="#333333"/>
</svg>