<svg width="33" height="33" viewBox="0 0 33 33" fill="none" xmlns="http://www.w3.org/2000/svg">
<path d="M16.5 0C7.39173 0 0 7.39173 0 16.5C0 25.6083 7.39173 33 16.5 33C25.6083 33 33 25.6083 33 16.5C33 7.39173 25.6083 0 16.5 0ZM23.1998 24.2776C22.9204 24.2776 22.7474 24.1911 22.4879 24.0381C18.3363 21.5365 13.506 21.43 8.73569 22.4081C8.47621 22.4746 8.1369 22.581 7.94395 22.581C7.29859 22.581 6.89274 22.0688 6.89274 21.5298C6.89274 20.8446 7.29859 20.5185 7.79758 20.4121C13.2466 19.2079 18.8153 19.3143 23.5657 22.1552C23.9716 22.4147 24.2111 22.6476 24.2111 23.253C24.2111 23.8585 23.7387 24.2776 23.1998 24.2776ZM24.9895 19.9131C24.6436 19.9131 24.4107 19.7601 24.1712 19.6337C20.0129 17.172 13.8121 16.1806 8.29657 17.6776C7.97722 17.7641 7.80423 17.8506 7.50484 17.8506C6.79294 17.8506 6.21411 17.2718 6.21411 16.5599C6.21411 15.848 6.56008 15.3756 7.24536 15.1827C9.09496 14.6637 10.9845 14.2778 13.7522 14.2778C18.0702 14.2778 22.2417 15.349 25.5284 17.305C26.0673 17.6244 26.2802 18.0369 26.2802 18.6157C26.2736 19.3343 25.7147 19.9131 24.9895 19.9131ZM27.052 14.8433C26.7061 14.8433 26.4931 14.7569 26.1938 14.5839C21.4567 11.7563 12.9871 11.0776 7.50484 12.6079C7.26532 12.6744 6.96593 12.7808 6.64657 12.7808C5.76835 12.7808 5.09637 12.0956 5.09637 11.2107C5.09637 10.3058 5.65524 9.79355 6.25403 9.62057C8.59597 8.93528 11.2173 8.60927 14.0716 8.60927C18.9284 8.60927 24.0181 9.62056 27.7373 11.7895C28.2563 12.0889 28.5956 12.5014 28.5956 13.2931C28.5956 14.198 27.8637 14.8433 27.052 14.8433Z" fill="#333333"/>
</svg>