<svg width="200" height="254" viewBox="0 0 200 254" fill="none" xmlns="http://www.w3.org/2000/svg">
<path d="M18.5 15.5C12.1 20.3 8.5 29 9.5 40C10.0885 46.4733 11.1 108.5 9.5 112.5C7.9 116.5 5.16667 120.833 4 122.5C4 122.5 7.9 128 9.5 132C11.1 136 10.0885 207.027 9.5 213.5C8.5 224.5 12.1 233.2 18.5 238C24.9 242.8 33.1667 243.5 37.5 243.5C41.8333 243.5 57.2 240.5 64 240.5C72.5 240.5 86.5 244 89.5 245.5C91.9 246.7 97.3333 249.333 100 250.5C102.667 249.333 108.6 246.7 111 245.5C114 244 128 240.5 136.5 240.5C143.3 240.5 158.667 243.5 163 243.5C167.333 243.5 175.6 242.8 182 238C188.4 233.2 192 224.5 191 213.5C190.412 207.027 189.4 136 191 132C192.6 128 195.333 124.167 196.5 122.5C195.333 120.833 192.6 116.5 191 112.5C189.4 108.5 190.412 46.4733 191 40C192 29 188.4 20.3 182 15.5C175.6 10.7 167.333 10 163 10C158.667 10 143.3 13 136.5 13C128 13 114 9.5 111 8C108.6 6.8 102.667 4.16667 100 3C97.3333 4.16667 91.9 6.8 89.5 8C86.5 9.5 72.5 13 64 13C57.2 13 41.8333 10 37.5 10C33.1667 10 24.9 10.7 18.5 15.5Z" fill="#E9D375" stroke="black" stroke-width="5"/>
<path d="M173.601 24.208C175.552 23.6878 177.53 23.7884 178.579 25C182.437 29.4567 184.423 35.9442 183.683 43.7361C183.139 49.4634 182.204 110.335 183.683 113.874C185.163 117.413 187.69 121.525 188.769 123C187.69 124.475 185.163 128.309 183.683 131.848C182.204 135.387 183.139 203.258 183.683 208.985C184.423 216.777 182.437 223.265 178.579 227.721C177.53 228.933 175.552 229.033 173.601 228.513M173.601 24.208C169.916 25.1907 166.327 28.3886 169.269 30.5C172.236 32.6292 173.899 28.0564 173.601 24.208ZM173.601 24.208C173.448 22.2197 172.771 20.4248 171.48 19.8476C166.412 17.5812 160.963 17.1933 157.792 17.1933C153.785 17.1933 139.576 19.8476 133.288 19.8476C125.429 19.8476 112.483 16.7509 109.709 15.4238C107.49 14.3621 102.235 12.0322 99.7688 11C97.303 12.0322 92.279 14.3621 90.0597 15.4238C87.2857 16.7509 74.3403 19.8476 66.4805 19.8476C60.1927 19.8476 45.9836 17.1933 41.9766 17.1933C38.8058 17.1933 33.3573 17.5812 28.2889 19.8476C24.5 21.5419 26 33.7293 30.5 30.5C35 27.2707 24.2202 21.5 21.19 25C17.3315 29.4567 15.3454 35.9442 16.0857 43.7361C16.6299 49.4634 17.5652 110.335 16.0857 113.874C14.6062 117.413 12.0788 121.247 11 122.721C12.0788 124.196 14.6062 128.03 16.0857 131.569C17.5652 135.108 16.6299 202.979 16.0857 208.706C15.3454 216.498 17.3315 222.986 21.19 227.442C22.2389 228.654 24.2166 228.755 26.1675 228.234M173.601 228.513C169.916 227.53 166.327 224.333 169.269 222.221C172.236 220.092 173.899 224.665 173.601 228.513ZM173.601 228.513C173.448 230.501 172.771 232.296 171.48 232.874C166.412 235.14 160.963 235.528 157.792 235.528C153.785 235.528 139.576 232.874 133.288 232.874C125.429 232.874 112.483 235.97 109.709 237.297C107.49 238.359 102.235 240.41 99.7688 241.442C97.303 240.41 92.279 238.08 90.0597 237.019C87.2857 235.691 74.3403 232.595 66.4805 232.595C60.1927 232.595 45.9836 235.249 41.9766 235.249C38.8058 235.249 33.3573 234.861 28.2889 232.595C26.9982 232.018 26.3212 230.223 26.1675 228.234M26.1675 228.234C29.8524 227.252 33.4422 224.054 30.5 221.942C27.533 219.813 25.8701 224.386 26.1675 228.234Z" stroke="black" stroke-width="2"/>
</svg>