<svg width="29" height="33" viewBox="0 0 29 33" fill="none" xmlns="http://www.w3.org/2000/svg">
<path d="M29 13.5328C26.1493 13.5396 23.3686 12.6544 21.0505 11.0024V22.5243C21.0497 24.6583 20.3946 26.7412 19.1728 28.4945C17.951 30.2478 16.2206 31.5879 14.2132 32.3356C12.2058 33.0834 10.0169 33.2031 7.93929 32.6788C5.86168 32.1545 3.99434 31.0111 2.58698 29.4016C1.17962 27.7922 0.299307 25.7932 0.0637617 23.6722C-0.171784 21.5511 0.248662 19.409 1.26888 17.5322C2.2891 15.6555 3.86046 14.1336 5.77285 13.1701C7.68524 12.2065 9.8475 11.8472 11.9705 12.1402V17.9354C10.999 17.6311 9.95581 17.6403 8.98986 17.9616C8.02391 18.2829 7.18461 18.8998 6.59184 19.7243C5.99906 20.5489 5.68311 21.5388 5.68911 22.5528C5.69511 23.5668 6.02275 24.5529 6.62524 25.3704C7.22773 26.188 8.07426 26.795 9.04395 27.1049C10.0136 27.4149 11.0569 27.4118 12.0247 27.0962C12.9925 26.7805 13.8354 26.1685 14.4331 25.3475C15.0307 24.5264 15.3525 23.5383 15.3525 22.5243V0H21.0505C21.0466 0.479098 21.0869 0.957543 21.171 1.42929C21.369 2.48238 21.7807 3.48419 22.3809 4.37344C22.9811 5.26268 23.7572 6.02066 24.6617 6.60103C25.9485 7.44821 27.4573 7.89976 29 7.89944V13.5328Z" fill="#333333"/>
</svg>