<svg width="103" height="16" viewBox="0 0 103 16" fill="none" xmlns="http://www.w3.org/2000/svg">
<path d="M2.66843 15C1.66843 13.5 0.36843 10.3 3.16843 9.50002C6.66843 8.50002 9.66842 11 9.16842 12C8.66842 13 -0.3316 11 1.16842 6.00001C2.36843 2.00001 11.0018 3.66668 15.1684 5.00001C18.6684 7.00002 24.8684 11.2 21.6684 12C17.6684 13 17.6989 4.34757 19.6684 4C28.1684 2.5 34.1684 11.5 41.1684 11C48.1684 10.5 50.1684 4 47.6684 4C45.1684 4 47.6684 9.50002 49.6684 9.50002C52.1684 9.50002 55.1684 1 51.6684 1C48.1684 1 51.0931 9.50002 53.5931 9.50002C54.3109 9.50002 55.093 8.79167 55.6854 7.88338M100.593 15C101.474 13.6788 102.588 11.0386 100.927 9.88138M100.927 9.88138C100.702 9.7248 100.427 9.59536 100.093 9.50002C96.5931 8.50002 93.5932 11 94.0932 12C94.433 12.6797 98.6995 11.9735 100.927 9.88138ZM100.927 9.88138C101.977 8.89541 102.574 7.60162 102.093 6.00001C100.893 2.00001 92.2598 3.66668 88.0931 5.00001C87.1418 5.54365 85.9909 6.24985 84.8835 7.00613M84.8835 7.00613C81.9171 9.03211 79.263 11.4175 81.5931 12C84.0739 12.6202 85.0044 9.52764 84.8835 7.00613ZM84.8835 7.00613C84.8095 5.46199 84.3412 4.13201 83.5931 4C75.0931 2.5 69.0931 11.5 62.0931 11C58.9877 10.7782 56.8663 9.37552 55.6854 7.88338M55.6854 7.88338C54.2043 6.01205 54.2022 4 55.5931 4C57.196 4 56.7436 6.26074 55.6854 7.88338Z" stroke="black"/>
</svg>