<svg width="41" height="33" viewBox="0 0 41 33" fill="none" xmlns="http://www.w3.org/2000/svg">
<path d="M36.7856 8.22419C36.8117 8.58511 36.8117 8.94611 36.8117 9.30703C36.8117 20.3156 28.3567 33 12.9036 33C8.14278 33 3.7202 31.6335 0 29.2618C0.676423 29.3391 1.32674 29.3648 2.02919 29.3648C5.95744 29.3648 9.57362 28.05 12.4613 25.8071C8.76715 25.7297 5.67132 23.3321 4.60467 20.032C5.12502 20.1093 5.64529 20.1609 6.19166 20.1609C6.94608 20.1609 7.70058 20.0577 8.40295 19.8774C4.5527 19.1039 1.66491 15.7523 1.66491 11.7047V11.6016C2.78353 12.2203 4.0844 12.6071 5.46311 12.6586C3.19977 11.1632 1.71696 8.6109 1.71696 5.72338C1.71696 4.17653 2.13313 2.75856 2.8616 1.52106C6.99805 6.57418 13.2157 9.87412 20.1878 10.2351C20.0577 9.61637 19.9797 8.9719 19.9797 8.32735C19.9797 3.73824 23.7259 0 28.3826 0C30.802 0 32.9873 1.00547 34.5222 2.62969C36.4213 2.26877 38.2423 1.57264 39.8554 0.618755C39.2309 2.55239 37.9042 4.17661 36.1612 5.20779C37.8522 5.02741 39.4912 4.56324 41 3.91878C39.8555 5.56871 38.4246 7.03818 36.7856 8.22419Z" fill="#333333"/>
</svg>