<svg id="icon" data-name="Layer 1" xmlns="http://www.w3.org/2000/svg" viewBox="0 0 2035.62 2500"><defs><style>.cls-1{fill:#fff;}</style></defs><path class="cls-1" d="M1700.28,1328.17c3.51,378.34,331.89,504.23,335.53,505.84-2.78,8.87-52.47,179.41-173,355.56-104.2,152.3-212.34,304-382.7,307.18-167.4,3.08-221.22-99.27-412.6-99.27s-251.13,96.13-409.59,102.35c-164.44,6.23-289.66-164.68-394.72-316.42C48.5,1873-115.57,1306.35,104.73,923.83c109.44-190,305-310.26,517.3-313.34,161.48-3.08,313.89,108.63,412.6,108.63s283.87-134.34,478.58-114.61c81.51,3.39,310.32,32.92,457.24,248-11.83,7.34-273,159.38-270.17,475.68m-314.6-929C1473,293.49,1531.74,146.37,1515.71,0c-125.84,5.06-278,83.86-368.27,189.47C1066.55,283,995.7,432.71,1014.82,576.18c140.26,10.85,283.55-71.27,370.86-177" transform="translate(-0.19)"/></svg>