<svg id="Layer_1" data-name="Layer 1" xmlns="http://www.w3.org/2000/svg" viewBox="0 0 448 512"><defs><style>.cls-1{fill:#fff;}</style></defs><path class="cls-1" d="M297.22,243.2c0,15.62-11.52,28.42-26.12,28.42-14.33,0-26.11-12.8-26.11-28.42s11.52-28.42,26.11-28.42S297.22,227.58,297.22,243.2ZM177.66,214.78c-14.59,0-26.11,12.8-26.11,28.42s11.78,28.42,26.11,28.42c14.6,0,26.12-12.8,26.12-28.42C204,227.58,192.26,214.78,177.66,214.78ZM448,52.74V512c-64.49-57-43.87-38.13-118.78-107.78l13.56,47.36H52.48A52.6,52.6,0,0,1,0,398.85V52.74A52.61,52.61,0,0,1,52.48,0h343A52.61,52.61,0,0,1,448,52.74ZM375,295.42c0-82.43-36.86-149.24-36.86-149.24-36.87-27.65-71.94-26.88-71.94-26.88l-3.58,4.09c43.52,13.31,63.74,32.51,63.74,32.51-60.81-33.32-132.24-33.33-191.23-7.42-9.47,4.35-15.11,7.42-15.11,7.42s21.25-20.22,67.33-33.53l-2.56-3.07s-35.07-.77-71.93,26.88c0,0-36.87,66.81-36.87,149.24,0,0,21.51,37.12,78.08,38.92,0,0,9.47-11.52,17.15-21.25-32.51-9.73-44.8-30.21-44.8-30.21,3.77,2.64,10,6.05,10.5,6.4,43.21,24.2,104.59,32.13,159.74,9a146.51,146.51,0,0,0,29.44-15.1s-12.8,21-46.33,30.46c7.68,9.73,16.89,20.74,16.89,20.74,56.58-1.8,78.34-38.92,78.34-38.92Z"/></svg>