<svg id="Layer_1" data-name="Layer 1" xmlns="http://www.w3.org/2000/svg" viewBox="0 0 496 496"><defs><style>.cls-1{fill:#fff;}</style></defs><path class="cls-1" d="M248,8C111.1,8,0,119.1,0,256S111.1,504,248,504,496,392.9,496,256,384.9,8,248,8ZM348.7,372.9c-4.2,0-6.8-1.3-10.7-3.6-62.4-37.6-135-39.2-206.7-24.5-3.9,1-9,2.6-11.9,2.6a15.57,15.57,0,0,1-15.8-15.8c0-10.3,6.1-15.2,13.6-16.8,81.9-18.1,165.6-16.5,237,26.2,6.1,3.9,9.7,7.4,9.7,16.5a15.11,15.11,0,0,1-15.2,15.4Zm26.9-65.6c-5.2,0-8.7-2.3-12.3-4.2-62.5-37-155.7-51.9-238.6-29.4-4.8,1.3-7.4,2.6-11.9,2.6a19.42,19.42,0,0,1-19.4-19.4c0-10.7,5.2-17.8,15.5-20.7,27.8-7.8,56.2-13.6,97.8-13.6,64.9,0,127.6,16.1,177,45.5,8.1,4.8,11.3,11,11.3,19.7A19.38,19.38,0,0,1,375.6,307.3Zm31-76.2c-5.2,0-8.4-1.3-12.9-3.9-71.2-42.5-198.5-52.7-280.9-29.7-3.6,1-8.1,2.6-12.9,2.6-13.2,0-23.3-10.3-23.3-23.6,0-13.6,8.4-21.3,17.4-23.9,35.2-10.3,74.6-15.2,117.5-15.2,73,0,149.5,15.2,205.4,47.8,7.8,4.5,12.9,10.7,12.9,22.6a23.17,23.17,0,0,1-23.2,23.3Z" transform="translate(0 -8)"/></svg>