<svg id="Layer_1" data-name="Layer 1" xmlns="http://www.w3.org/2000/svg" viewBox="0 0 447.73 512"><defs><style>.cls-1{fill:#fff;}</style></defs><path class="cls-1" d="M464.73,112.46A97.57,97.57,0,0,1,367.27,15a15,15,0,0,0-15-15H271.93a15,15,0,0,0-15,15V344.37a57.3,57.3,0,1,1-57.3-57.3,15,15,0,0,0,15-15V191.73a15,15,0,0,0-15-15C107.2,176.73,32,251.93,32,344.37S107.2,512,199.63,512s167.64-75.2,167.64-167.63V198.57a206.29,206.29,0,0,0,97.46,24.23,15,15,0,0,0,15-15V127.46A15,15,0,0,0,464.73,112.46Z" transform="translate(-32)"/></svg>