<svg id="Layer_1" data-name="Layer 1" xmlns="http://www.w3.org/2000/svg" viewBox="0 0 512 415.84"><defs><style>.cls-1{fill:#fff;}</style></defs><path class="cls-1" d="M459.37,151.72c.33,4.54.33,9.09.33,13.64,0,138.72-105.59,298.56-298.56,298.56A296.51,296.51,0,0,1,0,416.81a215.83,215.83,0,0,0,25.34,1.3,210.15,210.15,0,0,0,130.27-44.83A105.12,105.12,0,0,1,57.5,300.51a132.94,132.94,0,0,0,19.82,1.62,111.09,111.09,0,0,0,27.61-3.57,105,105,0,0,1-84.14-103v-1.29a105.67,105.67,0,0,0,47.43,13.31A105.07,105.07,0,0,1,35.74,67.25,298.28,298.28,0,0,0,252.1,177.06a118.78,118.78,0,0,1-2.6-24,105,105,0,0,1,181.6-71.8,206.58,206.58,0,0,0,66.6-25.34,104.61,104.61,0,0,1-46.13,57.83A210.61,210.61,0,0,0,512,97.46a225.62,225.62,0,0,1-52.63,54.26Z" transform="translate(0 -48.08)"/></svg>