<svg id="Layer_1" data-name="Layer 1" xmlns="http://www.w3.org/2000/svg" viewBox="0 0 546.13 384"><defs><style>.cls-1{fill:#fff;}</style></defs><path class="cls-1" d="M549.66,124.08a68.63,68.63,0,0,0-48.29-48.59C458.78,64,288,64,288,64S117.22,64,74.63,75.49a68.63,68.63,0,0,0-48.29,48.59C14.93,167,14.93,256.39,14.93,256.39s0,89.44,11.41,132.3c6.29,23.65,24.79,41.5,48.29,47.82C117.22,448,288,448,288,448s170.78,0,213.37-11.49c23.5-6.32,42-24.17,48.29-47.82,11.41-42.86,11.41-132.3,11.41-132.3S561.07,167,549.66,124.08ZM232.15,337.59V175.18l142.73,81.21-142.73,81.2Z" transform="translate(-14.93 -64)"/></svg>